<svg version="1.1" xmlns="http://www.w3.org/2000/svg" viewBox="-0.08 -0.08 1.16 1.16" stroke-width="0.1" stroke-linecap="round">
	<defs>
		<code>
			<![CDATA[
// var svg = ear.svg();
svg.size(1, 1)
	.padding(0.04)
	.strokeWidth(0.1)
	.strokeLinecap("round");
	
svg.rect(0, 0, 1, 1)
	.fill("white")
	.strokeWidth(0.1)
	.stroke("black");

let pad = 0.19;
svg.line(pad, 1-pad, 1-pad, pad)
	.stroke("#26F")
	.strokeWidth(0.14)
	.strokeDasharray("0.1 0.29");

svg.arrow(0.1,0.19,0.8,0.85)
	.tail({ width: 0.3, height: 0.3 })
	.bend(0.3)
	.stroke("transparent");

svg.arrow(0.4,0.25,0.8,0.85)
	.strokeWidth(0.09)
	.bend(0.5)
	.stroke("black");

]]>
		</code>
	</defs>
	<path
		d="M1,0.2C1,0.09 0.91,0 0.8,0L0.2,0C0.09,0 0,0.09 0,0.2L0,0.8C0,0.91 0.09,1 0.2,1L0.8,1C0.91,1 1,0.91 1,0.8L1,0.2Z"
		fill="white"
		stroke="black"
		stroke-width="0.1px" />
	<line x1="0.19" y1="0.81" x2="0.81" y2="0.19" stroke="#26F" stroke-width="0.14" stroke-dasharray="0.1 0.29"/>
	<g class="arrow" stroke="transparent">
		<path class="arrow-line" style="fill:none;" d="M0.3930560433209329,0.25417285620166413C0.6292680783949761,0.36283603406705084,0.7847206698463798,0.5904420029980151,0.8,0.85"/>
		<path class="arrow-tail" stroke="none" d="M0.1,0.19L0.36096961522010085,0.4007008778621306L0.425142471421765,0.10764483454119769Z" visibility="visible"/>
		<path class="arrow-head" stroke="none" d="M3.5095205951813755,10.475928430249622L4.650371372099849,-0.23380823807255025L-3.050371372099849,1.93380823807255Z" visibility="hidden"/>
	</g>
	<g class="arrow" stroke-width="0.09" stroke="black">
		<path class="arrow-line" style="fill:none;" d="M0.4,0.25C0.709,0.3118,0.8618,0.541,0.8,0.85"/>
		<path class="arrow-tail" stroke="none" d="M-9.4058067569092,-1.7111613513818404L-0.38446454055273616,4.1723227027636804L1.184464540552736,-3.6723227027636804Z" visibility="hidden"/>
		<path class="arrow-head" stroke="none" d="M-1.1611613513818424,10.655806756909202L4.722322702763681,1.634464540552737L-3.1223227027636806,0.06553545944726302Z" visibility="hidden"/>
	</g>
</svg>